<svg width="21" height="13" viewBox="0 0 21 13" fill="none" xmlns="http://www.w3.org/2000/svg">
<path 
    opacity="0.7" 
    fill-rule="evenodd" 
    clip-rule="evenodd" 
    d="M12.5435 0.994414C12.3208 0.831114 12.0079 0.879252 11.8446 1.10193C11.6813 1.32462 11.7294 1.63752 11.9521 1.80082L17.6783 6.00004H1.11523C0.839092 6.00004 0.615234 6.2239 0.615234 6.50004C0.615234 6.77619 0.839092 7.00004 1.11523 7.00004H17.6783L11.9521 11.1993C11.7294 11.3626 11.6813 11.6755 11.8446 11.8981C12.0079 12.1208 12.3208 12.169 12.5435 12.0057L19.4961 6.90704C19.4994 6.90471 19.5026 6.90234 19.5058 6.89993L20.0511 6.50004L19.5054 6.09984C19.5025 6.09765 19.4996 6.09549 19.4966 6.09336L12.5435 0.994414Z" 
    fill="#fff"/>
</svg>
